<mxfile host="app.diagrams.net" modified="2024-05-27T17:18:53.065Z" agent="Mozilla/5.0 (Windows NT 10.0; Win64; x64; rv:126.0) Gecko/20100101 Firefox/126.0" version="24.4.9" etag="42dVTTesBSjvx0R_g5S3" type="github">
  <diagram name="Page-1" id="ftbz3PvGfTqdEl4mbGJ-">
    <mxGraphModel>
      <root>
        <mxCell id="0" />
        <mxCell id="1" parent="0" />
      </root>
    </mxGraphModel>
  </diagram>
</mxfile>
